REM DIRINDEX 1\2,1\4,1\3\5,1\3\6,1\3\7
REM DIRNAME cjc082,folder01,folder02,folder03,folder04,folder05,folder06
TITLE ""
FILE "CD1Track05.mp3" MP3
  TRACK 01 AUDIO
    TITLE "0:"
    INDEX 01 00:00:00
  TRACK 02 AUDIO
    TITLE "5:cjc082_0045"
    INDEX 01 00:00:29
  TRACK 03 AUDIO
    TITLE "0:"
    INDEX 01 00:02:02
  TRACK 04 AUDIO
    TITLE "6:cjc082_0046"
    INDEX 01 00:02:43
  TRACK 05 AUDIO
    TITLE "0:"
    INDEX 01 00:04:46
  TRACK 06 AUDIO
    TITLE "5:cjc082_0047"
    INDEX 01 00:05:09
  TRACK 07 AUDIO
    TITLE "0:"
    INDEX 01 00:06:37
  TRACK 08 AUDIO
    TITLE "6:cjc082_0048"
    INDEX 01 00:07:02
  TRACK 09 AUDIO
    TITLE "0:"
    INDEX 01 00:08:40
  TRACK 10 AUDIO
    TITLE "5:cjc082_0049"
    INDEX 01 00:09:02
  TRACK 11 AUDIO
    TITLE "0:"
    INDEX 01 00:10:35
  TRACK 12 AUDIO
    TITLE "6:cjc082_0050"
    INDEX 01 00:10:72
  TRACK 13 AUDIO
    TITLE "0:"
    INDEX 01 00:12:34
  TRACK 14 AUDIO
    TITLE "5:cjc082_0051"
    INDEX 01 00:13:00
  TRACK 15 AUDIO
    TITLE "0:"
    INDEX 01 00:14:21
  TRACK 16 AUDIO
    TITLE "6:cjc082_0052"
    INDEX 01 00:14:62
  TRACK 17 AUDIO
    TITLE "0:"
    INDEX 01 00:15:66
  TRACK 18 AUDIO
    TITLE "5:cjc082_0053"
    INDEX 01 00:16:32
  TRACK 19 AUDIO
    TITLE "0:"
    INDEX 01 00:17:49
  TRACK 20 AUDIO
    TITLE "6:cjc082_0054"
    INDEX 01 00:18:17
  TRACK 21 AUDIO
    TITLE "0:"
    INDEX 01 00:19:28
  TRACK 22 AUDIO
    TITLE "5:cjc082_0055"
    INDEX 01 00:19:71
  TRACK 23 AUDIO
    TITLE "0:"
    INDEX 01 00:21:25
  TRACK 24 AUDIO
    TITLE "6:cjc082_0056"
    INDEX 01 00:21:66
  TRACK 25 AUDIO
    TITLE "0:"
    INDEX 01 00:23:16
  TRACK 26 AUDIO
    TITLE "5:cjc082_0057"
    INDEX 01 00:23:50
  TRACK 27 AUDIO
    TITLE "0:"
    INDEX 01 00:25:11
  TRACK 28 AUDIO
    TITLE "6:cjc082_0058"
    INDEX 01 00:25:54
  TRACK 29 AUDIO
    TITLE "0:"
    INDEX 01 00:28:29
  TRACK 30 AUDIO
    TITLE "5:cjc082_0059"
    INDEX 01 00:28:68
  TRACK 31 AUDIO
    TITLE "0:"
    INDEX 01 00:30:16
  TRACK 32 AUDIO
    TITLE "6:cjc082_0060"
    INDEX 01 00:30:61
  TRACK 33 AUDIO
    TITLE "0:"
    INDEX 01 00:32:48
  TRACK 34 AUDIO
    TITLE "5:cjc082_0061"
    INDEX 01 00:33:17
  TRACK 35 AUDIO
    TITLE "0:"
    INDEX 01 00:34:14
  TRACK 36 AUDIO
    TITLE "6:cjc082_0062"
    INDEX 01 00:34:59
  TRACK 37 AUDIO
    TITLE "0:"
    INDEX 01 00:36:19
  TRACK 38 AUDIO
    TITLE "5:cjc082_0063"
    INDEX 01 00:36:62
  TRACK 39 AUDIO
    TITLE "0:"
    INDEX 01 00:38:06
  TRACK 40 AUDIO
    TITLE "6:cjc082_0064"
    INDEX 01 00:38:53
  TRACK 41 AUDIO
    TITLE "0:"
    INDEX 01 00:39:66
  TRACK 42 AUDIO
    TITLE "5:cjc082_0065"
    INDEX 01 00:40:28
  TRACK 43 AUDIO
    TITLE "0:"
    INDEX 01 00:41:55
  TRACK 44 AUDIO
    TITLE "6:cjc082_0066"
    INDEX 01 00:42:27
  TRACK 45 AUDIO
    TITLE "0:"
    INDEX 01 00:43:27
  TRACK 46 AUDIO
    TITLE "5:cjc082_0067"
    INDEX 01 00:43:66
  TRACK 47 AUDIO
    TITLE "0:"
    INDEX 01 00:45:10
  TRACK 48 AUDIO
    TITLE "6:cjc082_0068"
    INDEX 01 00:45:55
  TRACK 49 AUDIO
    TITLE "0:"
    INDEX 01 00:48:12
  TRACK 50 AUDIO
    TITLE "5:cjc082_0069"
    INDEX 01 00:48:46
  TRACK 51 AUDIO
    TITLE "0:"
    INDEX 01 00:49:69
  TRACK 52 AUDIO
    TITLE "6:cjc082_0070"
    INDEX 01 00:50:33
  TRACK 53 AUDIO
    TITLE "0:"
    INDEX 01 00:51:65
  TRACK 54 AUDIO
    TITLE "5:cjc082_0071"
    INDEX 01 00:52:26
  TRACK 55 AUDIO
    TITLE "0:"
    INDEX 01 00:53:43
  TRACK 56 AUDIO
    TITLE "6:cjc082_0072"
    INDEX 01 00:54:11
  TRACK 57 AUDIO
    TITLE "0:"
    INDEX 01 00:57:17
  TRACK 58 AUDIO
    TITLE "7:cjc082_0073"
    INDEX 01 00:58:50
  TRACK 59 AUDIO
    TITLE "0:"
    INDEX 01 01:09:34
